<svg version="1.1" xmlns="http://www.w3.org/2000/svg" xmlns:xlink="http://www.w3.org/1999/xlink" width="774" height="3110"><desc>title%20Authentication%0A%0Aparticipant%20client%0Aparticipant%20firebase%0Aparticipant%20API%0Adatabase%20db%0A%0A%3D%3DLogin%3D%3D%0Abox%20over%20client%3A%20user%20clicks%5Cn'Login%20with%20Google%22%0Aclient-%3Efirebase%3A%20email%20%2B%20pw%0Abox%20over%20firebase%3A%20verify%20user%0Abox%20over%20firebase%3A%20Check%20if%20user%20in%20app-user-db%0Abox%20over%20firebase%3A%20No%3A%20add%20user%20to%20app-user-db%0Abox%20over%20firebase%3A%20Yes%3A%20continue%0Afirebase%20-%3E%20client%3A%20%20userCredentials%0Aclient%20-%3E%20API%3AidToken%0Abox%20over%20API%3A%20%2Flogin%0AAPI%20-%3Efirebase%3A%20idToken%0Abox%20over%20firebase%3A%20verify%20token%0Afirebase%20-%3EAPI%3A%20decoded_token%0Abox%20over%20API%3A%20extract%20uid%0AAPI%20-%3E%20db%3A%20%20SELECT%20*%20WHERE%20%5Cnuser_id%20%3D%20uid%0Abox%20over%20db%3A%20Verify%20user%0A%3D%3D%20New%20User%20%3D%3D%20%0Adb%20-%3EAPI%3A%20no%20matches%0Abox%20over%20API%3A%20add%20user%0AAPI-%3Edb%3A%20INSERT%3A%20user%20info%20%0A%3D%3D%20All%20%3D%3D%0Adb%20-%3EAPI%3A%20confirmation%0Abox%20over%20API%3Acreate%20personal%20encrypted%20token%20%5CnsecretString%2FuserId%2FtimeStamp%0AAPI%20-%3Eclient%3Aencrypted%20token%5Cn%0Abox%20over%20client%3A%20redirect%20to%20user%20home%20page%0A%3D%3DUser%20is%20Loged%20In%3D%3D%0Abox%20over%20client%3A%20API%20request%0Aclient-%3EAPI%3A%20hashToken%20%2B%20request_info%20%0Abox%20over%20API%3Averify%20request%20is%20from%20valid%20user%0AAPI-%3E%20client%3A%20requested%20info%20</desc><defs/><g><g/><g/><g/><g/><g/><g/><g/><g/><g/><g/><g/><g/><g/><g/><g/><g/><g/><g/><g/><g/><g/><g/><g/><g/><g/><g/><g/><g/><g/><g/><g/><g/><g/><g/><g><rect fill="white" stroke="none" x="0" y="0" width="774" height="3110"/></g><g><text fill="black" stroke="none" font-family="sans-serif" font-size="16.5pt" font-style="normal" font-weight="normal" text-decoration="normal" x="317.38749625782225" y="39.58145414999999" text-anchor="start" dominant-baseline="alphabetic" xml:space="preserve">Authentication</text></g><g/><g><path fill="none" stroke="black" paint-order="fill stroke markers" d=" M 137.73847544791016 208.19844882900003 L 137.73847544791016 3110.8384198289996" stroke-miterlimit="10" stroke-width="2.1989696750000003" stroke-dasharray="20.298181615384618,8.795878700000001"/><path fill="none" stroke="black" paint-order="fill stroke markers" d=" M 314.8484707461524 208.19844882900003 L 314.8484707461524 3110.8384198289996" stroke-miterlimit="10" stroke-width="2.1989696750000003" stroke-dasharray="20.298181615384618,8.795878700000001"/><path fill="none" stroke="black" paint-order="fill stroke markers" d=" M 485.4803166303321 208.19844882900003 L 485.4803166303321 3110.8384198289996" stroke-miterlimit="10" stroke-width="2.1989696750000003" stroke-dasharray="20.298181615384618,8.795878700000001"/><path fill="none" stroke="black" paint-order="fill stroke markers" d=" M 689.4407452781836 208.19844882900003 L 689.4407452781836 3110.8384198289996" stroke-miterlimit="10" stroke-width="2.1989696750000003" stroke-dasharray="20.298181615384618,8.795878700000001"/></g><g><path fill="none" stroke="none"/><g><path fill="white" stroke="black" paint-order="fill stroke markers" d=" M 91.99623409044531 136.951831359 L 183.480716805375 136.951831359 L 183.480716805375 208.19844882900003 L 91.99623409044531 208.19844882900003 L 91.99623409044531 136.951831359 Z" stroke-miterlimit="10" stroke-width="4.222021776" stroke-dasharray=""/></g><g><g/><text fill="black" stroke="none" font-family="sans-serif" font-size="11pt" font-style="normal" font-weight="normal" text-decoration="normal" x="120.62681925894532" y="181.81081272900002" text-anchor="start" dominant-baseline="alphabetic" xml:space="preserve">client</text></g><path fill="none" stroke="none"/><g><path fill="white" stroke="black" paint-order="fill stroke markers" d=" M 260.1405921816563 136.951831359 L 369.5563493106485 136.951831359 L 369.5563493106485 208.19844882900003 L 260.1405921816563 208.19844882900003 L 260.1405921816563 136.951831359 Z" stroke-miterlimit="10" stroke-width="4.222021776" stroke-dasharray=""/></g><g><g/><text fill="black" stroke="none" font-family="sans-serif" font-size="11pt" font-style="normal" font-weight="normal" text-decoration="normal" x="288.7711773501563" y="181.81081272900002" text-anchor="start" dominant-baseline="alphabetic" xml:space="preserve">firebase</text></g><path fill="none" stroke="none"/><g><path fill="white" stroke="black" paint-order="fill stroke markers" d=" M 445.035133378336 136.951831359 L 525.9254998823283 136.951831359 L 525.9254998823283 208.19844882900003 L 445.035133378336 208.19844882900003 L 445.035133378336 136.951831359 Z" stroke-miterlimit="10" stroke-width="4.222021776" stroke-dasharray=""/></g><g><g/><text fill="black" stroke="none" font-family="sans-serif" font-size="11pt" font-style="normal" font-weight="normal" text-decoration="normal" x="473.665718546836" y="181.81081272900002" text-anchor="start" dominant-baseline="alphabetic" xml:space="preserve">API</text></g><g><path fill="white" stroke="black" paint-order="fill stroke markers" d=" M 650.9147965721836 156.47868207300004 L 650.9147965721836 101.06464626300004 L 727.9666939841836 101.06464626300004 L 727.9666939841836 156.47868207300004" stroke-miterlimit="10" stroke-width="4.485898137" stroke-dasharray=""/><path fill="white" stroke="black" paint-order="fill stroke markers" d=" M 727.9666939841836 99.13834882770004 L 727.9647677028007 99.31250432333458 L 727.9589890512786 99.48664240356469 L 727.9493586074777 99.66074565472746 L 727.9358773344342 99.83479666664284 L 727.9185465802642 100.00877803435472 L 727.8973680780288 100.18267235987128 L 727.8723439455605 100.35646225390488 L 727.8434766852516 100.53013033761096 L 727.8107691838043 100.70365924432586 L 727.7742247119412 100.87703162130353 L 727.7338469240792 101.05023013145072 L 727.6896398579635 101.22323745506077 L 727.6416079342638 101.39603629154549 L 727.5897559561324 101.56860936116522 L 727.534089108724 101.74093940675681 L 727.4746129586767 101.91300919545932 L 727.4113334535563 102.08480152043727 L 727.3442569212604 102.2562992026013 L 727.2733900693863 102.42748509232614 L 727.1987399845602 102.59834207116543 L 727.1203141317284 102.76885305356372 L 727.0381203534107 102.93900098856481 L 726.9521668689166 103.10876886151704 L 726.8624622735229 103.27813969577454 L 726.7690155376141 103.44709655439505 L 726.6718360057863 103.6156225418335 L 726.5709333959115 103.78370080563158 L 726.4663177981668 103.95131453810299 L 726.3579996740244 104.11844697801416 L 726.2459898552069 104.28508141226035 L 726.1302995426024 104.45120117753703 L 726.0109403051462 104.61678966200607 L 725.8879240786623 104.78183030695705 L 725.7612631646708 104.94630660846298 L 725.6309702291578 105.11020211903077 L 725.497058301308 105.27350044924597 L 725.3595407722029 105.43618526941162 L 725.2184313934804 105.59824031118129 L 725.0737442759612 105.75964936918582 L 724.9254938882361 105.92039630265394 L 724.7736950552206 106.08046503702626 L 724.6183629566715 106.23983956556272 L 724.4595131256691 106.39850395094328 L 724.2971614470641 106.55644232686161 L 724.1313241558892 106.71363889961177 L 723.9620178357352 106.87007794966746 L 723.789259417093 107.02574383325403 L 723.6130661756607 107.18062098391285 L 723.4334557306155 107.33469391405792 L 723.2504460428522 107.48794721652463 L 723.064055413187 107.64036556611042 L 722.8743024805277 107.79193372110737 L 722.6812062200095 107.94263652482627 L 722.4847859410972 108.09245890711233 L 722.2850612856553 108.2413858858522 L 722.0820522259828 108.3894025684721 L 721.8757790628166 108.53649415342709 L 721.666262423301 108.68264593168126 L 721.4535232589253 108.8278432881786 L 721.2375828434289 108.97207170330445 L 721.0184627706731 109.11531675433747 L 720.7961849524828 109.25756411689196 L 720.5707716164545 109.39879956635015 L 720.3422453037341 109.53900897928484 L 720.1106288667622 109.67817833487156 L 719.8759454669896 109.81629371629072 L 719.6382185725606 109.95334131211928 L 719.3974719559668 110.08930741771186 L 719.153729691669 110.22417843657122 L 718.9070161536906 110.35794088170783 L 718.6573560131799 110.49058137698869 L 718.4047742359427 110.62208665847477 L 718.1492960799463 110.75244357574753 L 717.8909470927935 110.88163909322387 L 717.6297531091676 111.00966029145968 L 717.3657402482494 111.13649436844186 L 717.098934911105 111.26212864086838 L 716.8293637780456 111.3865505454167 L 716.55705380596 111.50974764000006 L 716.2820322256185 111.63170760501164 L 716.00432653895 111.75241824455658 L 715.7239645162916 111.87186748767154 L 715.440974193612 111.99004338953172 L 715.1553838697076 112.10693413264543 L 714.8672221033729 112.22252802803578 L 714.5765177105444 112.33681351640952 L 714.283299761419 112.44977916931309 L 713.9875975775473 112.56141369027532 L 713.6894407289013 112.67170591593712 L 713.3888590309175 112.78064481716788 L 713.085882541515 112.88821950016822 L 712.7805415580905 112.99441920755952 L 712.4728666144878 113.0992333194595 L 712.1628884779448 113.20265135454434 L 711.8506381460168 113.30466297109672 L 711.5361468434769 113.40525796803998 L 711.2194460191932 113.50442628595825 L 710.9005673429843 113.60215800810239 L 710.5795427024522 113.69844336138162 L 710.2564041997931 113.79327271734086 L 709.9311841485882 113.88663659312353 L 709.6039150705716 113.97852565241985 L 709.2746296923783 114.06893070640047 L 708.9433609422717 114.15784271463534 L 708.610141946851 114.2452527859977 L 708.2750060277377 114.3311521795533 L 707.9379866982447 114.41553230543434 L 707.599117660024 114.49838472569854 L 707.2584327996971 114.57970115517293 L 706.9159661854659 114.65947346228232 L 706.5717520637068 114.73769366986248 L 706.2258248555448 114.81435395595784 L 705.8782191534126 114.88944665460366 L 705.5289697175908 114.96296425659267 L 705.1781114727319 115.03489941022592 L 704.8256795043678 115.105244922048 L 704.471709055402 115.17399375756635 L 704.1162355225841 115.2411390419547 L 703.7592944529714 115.30667406074058 L 703.4009215403732 115.37059226047671 L 703.0411526217823 115.43288724939639 L 702.6800236737907 115.49355279805263 L 702.3175708089922 115.55258283994114 L 701.9538302723713 115.60997147210689 L 701.5888384376784 115.66571295573452 L 701.2226318037931 115.7198017167221 L 700.8552469910733 115.77223234623861 L 700.4867207376943 115.82299960126478 L 700.1170898959743 115.87209840511744 L 699.7463914286895 115.9195238479571 L 699.3746624053776 115.96527118727899 L 699.0019399986313 116.00933584838731 L 698.6282614803805 116.05171342485268 L 698.2536642181658 116.09239967895275 L 697.8781856714011 116.13139054209603 L 697.5018633876283 116.16868211522868 L 697.124734998762 116.20427066922448 L 696.7468382173272 116.23815264525768 L 696.3682108326867 116.27032465515893 L 695.9888907072636 116.30078348175402 L 695.6089157727545 116.32952607918568 L 695.2283240263359 116.35654957321813 L 694.8471535268656 116.38185126152449 L 694.4654423910756 116.405428613957 L 694.0832287897617 116.42727927280006 L 693.7005509439653 116.44740105300602 L 693.3174471211521 116.4657919424136 L 692.9339556313853 116.4824501019492 L 692.550114823494 116.49737386581074 L 692.1659630812395 116.51056174163428 L 691.7815388194756 116.52201241064321 L 691.3968804803083 116.5317247277802 L 691.0120265292508 116.5396977218216 L 690.6270154513776 116.54593059547467 L 690.2418857474756 116.55042272545724 L 689.8566759301943 116.55317366256004 L 689.4714245201945 116.55418313169166 L 689.086170042296 116.55345103190604 L 688.7009510216257 116.55097743641252 L 688.3158059797644 116.5467625925686 L 687.9307734308956 116.54080692185516 L 687.5458918779532 116.53311101983432 L 687.1611998087718 116.52367565608984 L 686.7767356922377 116.51250177415025 L 686.3925379744422 116.49959049139443 L 686.008645074837 116.48494309893988 L 685.6250953823919 116.46856106151367 L 685.2419272517568 116.45044601730586 L 684.8591789994252 116.4305997778058 L 684.4768888999037 116.40902432762088 L 684.0950951818834 116.38572182427816 L 683.713836024418 116.36069459800854 L 683.3331495531056 116.3339451515138 L 682.9530738362761 116.30547615971629 L 682.5736468811845 116.27529046949147 L 682.1949066302099 116.24339109938322 L 681.8168909570619 116.20978123930193 L 681.4396376629928 116.17446425020565 L 681.0631844730178 116.13744366376382 L 680.6875690321419 116.09872318200426 L 680.3128289015964 116.05830667694286 L 679.939001555082 116.01619819019646 L 679.5661243750218 115.97240193257863 L 679.194234648823 115.92692228367865 L 678.8233695651485 115.8797637914235 L 678.4535662101976 115.83093117162312 L 678.0848615639974 115.78042930749876 L 677.7172924967053 115.7282632491948 L 677.3508957649221 115.67443821327356 L 676.9857080080153 115.61895958219381 L 676.6217657444563 115.56183290377238 L 676.2591053681682 115.50306389062955 L 675.8977631448865 115.44265841961764 L 675.5377752085324 115.38062253123343 L 675.1791775575995 115.31696242901404 L 674.8220060515539 115.25168447891664 L 674.4662964072488 115.18479520868186 L 674.1120841953522 115.11630130718099 L 673.7594048367899 115.04620962374707 L 673.4082935992042 114.97452716749007 L 673.0587855934259 114.90126110659584 L 672.7109157699646 114.82641876760945 L 672.3647189155126 114.75000763470243 L 672.0202296494668 114.67203534892437 L 671.677482420467 114.59250970743888 L 671.3365115029502 114.51143866274384 L 670.9973509937241 114.42883032187616 L 670.660034808557 114.3446929456011 L 670.3245966787864 114.25903494758614 L 669.9910701479456 114.17186489355974 L 669.6594885684099 114.08319150045465 L 669.3298850980607 113.99302363553626 L 669.0022926969706 113.90137031551595 L 668.6767441241067 113.80824070564933 L 668.3532719340549 113.71364411881979 L 668.0319084737646 113.61759001460716 L 667.7126858793141 113.52008799834185 L 667.3956360726969 113.42114782014421 L 667.0807907586294 113.32077937394963 L 666.7681814213805 113.21899269651907 L 666.4578393216237 113.11579796643547 L 666.1497954933101 113.01120550308582 L 665.8440807405659 112.90522576562931 L 665.5407256346117 112.79786935195136 L 665.2397605107053 112.68914699760388 L 664.9412154651081 112.57906957473172 L 664.6451203520761 112.4676480909854 L 664.3515047808737 112.35489368842047 L 664.0603981128135 112.24081764238323 L 663.7718294583195 112.1254313603832 L 663.4858276740168 112.00874638095245 L 663.2024213598455 111.89077437249165 L 662.9216388562008 111.77152713210336 L 662.6435082410993 111.65101658441225 L 662.3680573273704 111.52925478037265 L 662.0953136598761 111.40625389606352 L 661.8253045127559 111.28202623147075 L 661.5580568866994 111.15658420925732 L 661.2935975062466 111.02994037352089 L 661.031952817115 110.90210738853949 L 660.7731489835556 110.77309803750512 L 660.5172118857363 110.64292522124536 L 660.2641671171532 110.51160195693338 L 660.0140399820725 110.37914137678612 L 659.7668554929992 110.24555672675127 L 659.5226383681763 110.11086136518249 L 659.2814130291127 109.97506876150368 L 659.0432035981413 109.83819249486207 L 658.8080338960068 109.70024625277026 L 658.5759274394833 109.56124382973746 L 658.3469074390231 109.42119912589021 L 658.1209967964353 109.28012614558213 L 657.8982181025959 109.13803899599372 L 657.6785936351889 108.99495188572155 L 657.4621453564777 108.85087912335736 L 657.2488949111099 108.70583511605736 L 657.0388636239525 108.5598343681014 L 656.832072497959 108.41289147944262 L 656.6285422120696 108.26502114424743 L 656.4282931191435 108.11623814942611 L 656.231345243923 107.96655737315416 L 656.0377182810315 107.8159937833845 L 655.847431593004 107.6645624363506 L 655.6605042083506 107.512278475061 L 655.4769548196541 107.35915712778491 L 655.2968017817004 107.20521370652946 L 655.1200631096433 107.0504636055085 L 654.9467564772024 106.89492229960317 L 654.7768992148967 106.73860534281442 L 654.610508308311 106.5815283667077 L 654.4476003963971 106.4237070788497 L 654.2881917698105 106.2651572612377 L 654.1322983692812 106.10589476872134 L 653.9799357840191 105.94593552741715 L 653.8311192501558 105.78529553311594 L 653.6858636492207 105.62399084968331 L 653.5441835066529 105.46203760745315 L 653.4060929903485 105.29945200161475 L 653.2716059092442 105.1362502905932 L 653.1407357119358 104.97244879442357 L 653.0134954853343 104.80806389311903 L 652.889897953356 104.64311202503268 L 652.7699554756513 104.47760968521388 L 652.653680046368 104.3115734237587 L 652.541083292952 104.14501984415493 L 652.432176474985 103.97796560162172 L 652.3269704830578 103.81042740144412 L 652.2254758376822 103.64242199730253 L 652.1277026882381 103.47396618959736 L 652.0336608119587 103.305076823769 L 651.9433596129536 103.1357707886133 L 651.8568081212672 102.96606501459269 L 651.7740149919769 102.79597647214312 L 651.6949885043261 102.62552216997715 L 651.6197365608981 102.4547191533829 L 651.5482666868244 102.28358450251972 L 651.4805860290329 102.11213533071007 L 651.416701355533 101.94038878272828 L 651.3566190547386 101.768362033086 L 651.3003451348301 101.59607228431486 L 651.2478852231523 101.42353676524615 L 651.1992445656526 101.25077272928802 L 651.1544280263565 101.07779745270005 L 651.1134400868804 100.9046282328658 L 651.076284845984 100.73128238656292 L 651.0429660191606 100.5577772482316 L 651.0134869382651 100.38413016824109 L 650.9878505511809 100.21035851115465 L 650.9660594215255 100.03647965399321 L 650.9481157283936 99.86251098449759 L 650.9340212661397 99.68846989938976 L 650.9237774441981 99.51437380263317 L 650.9173852869425 99.34024010369247 L 650.9148454335834 99.16608621579239 L 650.9161581381039 98.99192955417662 L 650.9213232692347 98.81778753436619 L 650.9303403104669 98.64367757041796 L 650.9432083601041 98.46961707318323 L 650.959926131352 98.29562344856669 L 650.9804919524471 98.12171409578578 L 651.0049037668248 97.94790640563087 L 651.0331591333239 97.77421775872614 L 651.0652552264312 97.60066552379153 L 651.1011888365643 97.42726705590593 L 651.140956370392 97.25403969477159 L 651.1845538511941 97.0810007629803 L 651.2319769192588 96.90816756428103 L 651.2832208323189 96.73555738184962 L 651.3382804660257 96.56318747656049 L 651.3971503144619 96.3910750852605 L 651.4598244906914 96.21923741904537 L 651.5262967273491 96.04769166153852 L 651.5965603772667 95.87645496717275 L 651.6706084141375 95.70554445947478 L 651.7484334332197 95.53497722935299 L 651.8300276520763 95.36477033338824 L 651.9153829113534 95.19494079212826 L 652.0044906755961 95.0255055883857 L 652.0973420341023 94.85648166553969 L 652.1939277018135 94.6878859258417 L 652.2942380202435 94.5197352287252 L 652.3982629584439 94.35204638911974 L 652.5059921140075 94.18483617576958 L 652.6174147141089 94.0181213095567 L 652.7325196165806 93.85191846182879 L 652.8512953110284 93.68624425273212 L 652.9737299199818 93.52111524954954 L 653.0998112000818 93.35654796504377 L 653.2295265433058 93.19255885580611 L 653.3628629782273 93.02916432061083 L 653.4998071713139 92.86638069877529 L 653.6403454282607 92.70422426852602 L 653.7844636953588 92.54271124537092 L 653.9321475609017 92.3818577804777 L 654.083382256626 92.22167995905882 L 654.238152659188 92.06219379876292 L 654.3964432916766 91.90341524807314 L 654.5582383251603 91.74536018471224 L 654.7235215802707 91.58804441405483 L 654.8922765288199 91.43148366754689 L 655.0644862954538 91.27569360113259 L 655.2401336593391 91.12068979368877 L 655.419201055886 90.96648774546698 L 655.6016705785038 90.81310287654355 L 655.7875239803925 90.66055052527756 L 655.9767426763667 90.508845946777 L 656.1693077447145 90.3580043113733 L 656.3651999290896 90.2080407031043 L 656.5643996404367 90.05897011820588 L 656.7668869589507 89.91080746361227 L 656.9726416360686 89.76356755546549 L 657.1816430964939 89.61726511763362 L 657.393870440255 89.47191478023856 L 657.6093024447941 89.32753107819292 L 657.8279175670906 89.18412844974657 L 658.0496939458142 89.04172123504284 L 658.2746094035119 88.90032367468457 L 658.5026414488253 88.75994990830995 L 658.7337672787401 88.6206139731786 L 658.9679637808657 88.48232980276798 L 659.2052075357471 88.34511122537985 L 659.4454748192067 88.20897196275763 L 659.6887416047161 88.07392562871412 L 659.9349835657997 87.93998572777018 L 660.1841760784664 87.80716565380429 L 660.4362942236727 87.67547868871318 L 660.6913127898141 87.54493800108361 L 660.9492062752466 87.41555664487555 L 661.2099488908365 87.2873475581168 L 661.4735145625395 87.16032356160923 L 661.7398769340083 87.0344973576466 L 662.0090093692274 86.90988152874448 L 662.2808849551777 86.78648853638188 L 662.5554765045272 86.66433071975524 L 662.8327565583497 86.54342029454442 L 663.112697388871 86.42376935169116 L 663.3952710022412 86.30538985619008 L 663.6804491413345 86.18829364589203 L 663.9682032885747 86.0724924303205 L 664.2585046687868 85.95799778950051 L 664.5513242520747 85.84482117280076 L 664.846632756724 85.73297389778861 L 665.1444006521306 85.62246714909833 L 665.4445981617528 85.51331197731271 L 665.74719526609 85.40551929785798 L 666.0521617056837 85.29909988991224 L 666.3594669841444 85.19406439532762 L 666.6690803712 85.09042331756602 L 666.9809709057702 84.98818702064888 L 667.2951073990611 84.88736572812068 L 667.6114584376852 84.78796952202666 L 667.9299923868024 84.6900083419046 L 668.2506773932832 84.59349198379087 L 668.5734813888942 84.49843009924086 L 668.8983720935047 84.40483219436382 L 669.2253170183151 84.3127076288722 L 669.5542834691054 84.22206561514581 L 669.8852385495046 84.13291521731048 L 670.2181491642804 84.0452653503317 L 670.5529820226488 83.95912477912314 L 670.8897036416031 83.87450211767012 L 671.2282803492619 83.79140582816828 L 671.5686782882366 83.70984422017732 L 671.9108634190169 83.62982544979005 L 672.2548015233749 83.55135751881686 L 672.6004582077869 83.47444827398543 L 672.9477989068723 83.39910540615617 L 673.2967888868509 83.32533644955306 L 673.6473932490153 83.25314878101032 L 673.9995769332215 83.18254961923462 L 674.3533047213947 83.1135460240833 L 674.7085412410506 83.04614489585839 L 675.0652509688335 82.98035297461655 L 675.4233982340679 82.91617683949505 L 675.7829472223256 82.85362290805395 L 676.1438619790073 82.79269743563424 L 676.5061064129383 82.73340651473242 L 676.8696442999769 82.67575607439116 L 677.2344392866376 82.61975187960644 L 677.6004548937254 82.56539953075108 L 677.9676545199849 82.51270446301467 L 678.3360014457593 82.46167194586008 L 678.705458836663 82.41230708249647 L 679.0759897472648 82.36461480936907 L 679.4475571247824 82.31859989566543 L 679.8201238127878 82.2742669428386 L 680.1936525549226 82.23162038414688 L 680.5681059986238 82.19066448421063 L 680.943446698859 82.15140333858571 L 681.3196371218712 82.11384087335396 L 681.6966396489314 82.0779808447306 L 682.0744165801012 82.04382683868862 L 682.4529301380021 82.01138227060014 L 682.832142471594 81.98065038489496 L 683.2120156599593 81.951634254736 L 683.5925117160959 81.92433678171216 L 683.9735925907152 81.89876069554792 L 684.3552201760473 81.87490855383064 L 684.7373563096517 81.8527827417546 L 685.1199627782333 81.83238547188255 L 685.5030013214645 81.81371878392449 L 685.8864336358098 81.79678454453366 L 686.2702213783574 81.78158444711991 L 686.654326170653 81.7681200116803 L 687.0387096025372 81.75639258464713 L 687.4233332359873 81.74640333875335 L 687.8081586089606 81.73815327291524 L 688.1931472392403 81.73164321213248 L 688.578260628284 81.72687380740575 L 688.9634602650742 81.72384553567153 L 689.348707629968 81.72255869975447 L 689.7339641985498 81.7230134283371 L 690.1191914454839 81.72520967594693 L 690.5043508483667 81.72914722296105 L 690.8894038915788 81.734825675628 L 691.2743120701367 81.74224446610728 L 691.6590368935434 81.75140285252601 L 692.0435398896373 81.76229991905319 L 692.4277826084389 81.77493457599125 L 692.8117266259967 81.78930555988501 L 693.1953335482287 81.80541143364806 L 693.5785650147627 81.82325058670645 L 693.9613827027712 81.84282123515973 L 694.3437483308044 81.8641214219594 L 694.7256236626181 81.88714901710448 L 695.1069705109975 81.91190171785466 L 695.4877507415754 81.93837704896052 L 695.8679262766461 81.96657236291098 L 696.247459098973 81.99648484019815 L 696.62631125559 82.02811148959924 L 697.0044448615972 82.06144914847566 L 697.3818221039492 82.09649448308929 L 697.7584052452361 82.13324398893589 L 698.1341566274576 82.17169399109548 L 698.5090386757888 82.21184064459992 L 698.883013902337 82.25367993481728 L 699.2560449098913 82.29720767785342 L 699.628094395662 82.34241952097031 L 699.9991251550102 82.3893109430213 L 700.3691000851694 82.43787725490328 L 700.7379821889549 82.48811360002553 L 701.1057345784635 82.5400149547954 L 701.472320478763 82.59357612912065 L 701.8377032315686 82.6487917669285 L 702.2018462989098 82.70565634670118 L 702.5647132667831 82.76416418202808 L 702.926267848794 82.82430942217445 L 703.2864738897858 82.88608605266639 L 703.6452953694546 82.94948789589232 L 704.0026964059513 83.01450861172076 L 704.3586412594701 83.0811416981343 L 704.7130943358223 83.14938049187985 L 705.0660201899957 83.21921816913488 L 705.417383529699 83.29064774618986 L 705.7671492188908 83.36366208014663 L 706.115282281294 83.43825386963262 L 706.4617479038923 83.51441565553105 L 706.806511440412 83.59213982172679 L 707.149538414787 83.671418595868 L 707.4907945246056 83.75224405014333 L 707.8302456445412 83.83460810207471 L 708.1678578297647 83.91850251532557 L 708.5035973193388 84.0039189005245 L 708.8374305395946 84.09084871610418 L 709.169324107488 84.17928326915546 L 709.499244833939 84.26921371629676 L 709.8271597271498 84.36063106455829 L 710.1530359959042 84.45352617228141 L 710.4768410528471 84.54788975003277 L 710.7985425177426 84.6437123615332 L 711.1181082207122 84.74098442460144 L 711.4355062054519 84.83969621211223 L 711.7507047324278 84.93983785296906 L 712.0636722820499 85.04139933309132 L 712.374377557824 85.14437049641562 L 712.6827894894814 85.24874104591143 L 712.988877236086 85.3545005446108 L 713.292610189118 85.46163841665197 L 713.5939579755357 85.57014394833702 L 713.892890460811 85.68000628920322 L 714.1893777519449 85.791214453108 L 714.4833902004552 85.90375731932768 L 714.7748984053421 86.0176236336694 L 715.063873216028 86.13280200959663 L 715.3502857352727 86.24928092936774 L 715.6341073220627 86.36704874518784 L 715.9153095944763 86.48609368037347 L 716.1938644325202 86.60640383053033 L 716.4697439809428 86.72796716474365 L 716.7429206520193 86.8507715267813 L 717.0133671283102 86.97480463630944 L 717.281056365393 87.10005409012047 L 717.5459615945675 87.22650736337337 L 717.8080563255312 87.35415181084622 L 718.0673143490295 87.48297466820061 L 718.323709739476 87.61296305325817 L 718.5772168575456 87.74410396728872 L 718.8278103527375 87.87638429631014 L 719.0754651659112 88.00979081239976 L 719.3201565317916 88.14431017501714 L 719.5618599814459 88.27992893233812 L 719.8005513447308 88.41663352259998 L 720.0362067527088 88.55441027545763 L 720.2688026400356 88.69324541335057 L 720.498315747316 88.83312505288072 L 720.7247231234309 88.9740352062007 L 720.948002127831 89.1159617824126 L 721.1681304328022 89.25889058897707 L 721.3850860256973 89.40280733313254 L 721.5988472111378 89.54769762332457 L 721.8093926131835 89.69354697064483 L 722.0167011774693 89.84034079028017 L 722.2207521733118 89.98806440297092 L 722.4215251957813 90.13670303647895 L 722.619000167743 90.28624182706474 L 722.8131573418642 90.43666582097387 L 723.0039773025892 90.5879599759323 L 723.1914409680811 90.7401091626506 L 723.3755295921295 90.8930981663369 L 723.5562247660254 91.0469116882183 L 723.7335084204019 91.20153434707083 L 723.9073628270414 91.35695068075742 L 724.0777706006483 91.51314514777422 L 724.2447147005868 91.67010212880471 L 724.4081784325864 91.82780592828158 L 724.5681454504099 91.98624077595628 L 724.7245997574889 92.14539082847608 L 724.8775257085232 92.30524017096836 L 725.0269080110451 92.46577281863208 L 725.1727317269485 92.62697271833625 L 725.3149822739838 92.78882375022522 L 725.4536454272145 92.95130972933067 L 725.5887073204409 93.11441440719013 L 725.7201544475863 93.2781214734717 L 725.8479736640476 93.44241455760519 L 725.9721521880095 93.6072772304191 L 726.0926776017232 93.77269300578352 L 726.2095378527476 93.93864534225877 L 726.3227212551552 94.1051176447495 L 726.4322164907001 94.27209326616416 L 726.5380126099496 94.43955550907978 L 726.6400990333805 94.60748762741163 L 726.7384655524351 94.77587282808778 L 726.8331023305435 94.94469427272853 L 726.923999904107 95.11393507933006 L 727.0111491834438 95.28357832395277 L 727.0945414536986 95.45360704241355 L 727.174168375714 95.62400423198225 L 727.250021986864 95.79475285308192 L 727.3220947018508 95.96583583099272 L 727.3903793134629 96.13723605755945 L 727.454868993296 96.30893639290227 L 727.5155572924359 96.48091966713072 L 727.5724381421035 96.65316868206072 L 727.6255058542607 96.82566621293432 L 727.6747551221811 96.99839501014216 L 727.7201810209785 97.17133780094846 L 727.7617790081011 97.34447729121827 L 727.7995449237848 97.51779616714684 L 727.8334749914695 97.691277096991 L 727.8635658181767 97.86490273280235 L 727.8898143948488 98.038655712162 L 727.91221809665 98.21251865991678 L 727.9307746832288 98.38647418991683 L 727.9454822989421 98.56050490675408 L 727.9563394730404 98.73459340750189 L 727.9633451198156 98.90872228345528 L 727.9664985387085 99.08287412187171 M 727.9666939841836 154.55238463770004 L 727.9647677028007 154.7265401333346 L 727.9589890512786 154.9006782135647 L 727.9493586074777 155.07478146472747 L 727.9358773344342 155.24883247664286 L 727.9185465802642 155.42281384435472 L 727.8973680780288 155.59670816987128 L 727.8723439455605 155.77049806390488 L 727.8434766852516 155.94416614761096 L 727.8107691838043 156.11769505432588 L 727.7742247119412 156.29106743130353 L 727.7338469240792 156.46426594145072 L 727.6896398579635 156.63727326506077 L 727.6416079342638 156.8100721015455 L 727.5897559561324 156.98264517116522 L 727.534089108724 157.1549752167568 L 727.4746129586767 157.32704500545933 L 727.4113334535563 157.49883733043725 L 727.3442569212604 157.6703350126013 L 727.2733900693863 157.84152090232612 L 727.1987399845602 158.01237788116543 L 727.1203141317284 158.1828888635637 L 727.0381203534107 158.35303679856483 L 726.9521668689166 158.52280467151704 L 726.8624622735229 158.69217550577454 L 726.7690155376141 158.86113236439505 L 726.6718360057863 159.0296583518335 L 726.5709333959115 159.19773661563158 L 726.4663177981668 159.365350348103 L 726.3579996740244 159.53248278801416 L 726.2459898552069 159.69911722226036 L 726.1302995426024 159.86523698753703 L 726.0109403051462 160.0308254720061 L 725.8879240786623 160.19586611695703 L 725.7612631646708 160.36034241846298 L 725.6309702291578 160.5242379290308 L 725.497058301308 160.68753625924597 L 725.3595407722029 160.85022107941163 L 725.2184313934804 161.0122761211813 L 725.0737442759612 161.1736851791858 L 724.9254938882361 161.33443211265396 L 724.7736950552206 161.49450084702625 L 724.6183629566715 161.6538753755627 L 724.4595131256691 161.81253976094328 L 724.2971614470641 161.97047813686163 L 724.1313241558892 162.12767470961177 L 723.9620178357352 162.28411375966746 L 723.789259417093 162.43977964325404 L 723.6130661756607 162.59465679391286 L 723.4334557306155 162.74872972405794 L 723.2504460428522 162.90198302652462 L 723.064055413187 163.05440137611043 L 722.8743024805277 163.20596953110737 L 722.6812062200095 163.35667233482627 L 722.4847859410972 163.50649471711233 L 722.2850612856553 163.6554216958522 L 722.0820522259828 163.8034383784721 L 721.8757790628166 163.95052996342707 L 721.666262423301 164.09668174168127 L 721.4535232589253 164.2418790981786 L 721.2375828434289 164.38610751330447 L 721.0184627706731 164.52935256433747 L 720.7961849524828 164.67159992689196 L 720.5707716164545 164.81283537635017 L 720.3422453037341 164.95304478928483 L 720.1106288667622 165.09221414487158 L 719.8759454669896 165.23032952629072 L 719.6382185725606 165.36737712211928 L 719.3974719559668 165.50334322771187 L 719.153729691669 165.6382142465712 L 718.9070161536906 165.77197669170783 L 718.6573560131799 165.9046171869887 L 718.4047742359427 166.0361224684748 L 718.1492960799463 166.16647938574755 L 717.8909470927935 166.29567490322387 L 717.6297531091676 166.42369610145968 L 717.3657402482494 166.55053017844187 L 717.098934911105 166.67616445086838 L 716.8293637780456 166.8005863554167 L 716.55705380596 166.92378345000006 L 716.2820322256185 167.04574341501163 L 716.00432653895 167.1664540545566 L 715.7239645162916 167.28590329767155 L 715.440974193612 167.40407919953174 L 715.1553838697076 167.52096994264545 L 714.8672221033729 167.63656383803578 L 714.5765177105444 167.75084932640954 L 714.283299761419 167.86381497931308 L 713.9875975775473 167.97544950027532 L 713.6894407289013 168.08574172593714 L 713.3888590309175 168.19468062716788 L 713.085882541515 168.30225531016822 L 712.7805415580905 168.4084550175595 L 712.4728666144878 168.5132691294595 L 712.1628884779448 168.61668716454435 L 711.8506381460168 168.71869878109672 L 711.5361468434769 168.81929377804 L 711.2194460191932 168.91846209595826 L 710.9005673429843 169.01619381810238 L 710.5795427024522 169.1124791713816 L 710.2564041997931 169.20730852734084 L 709.9311841485882 169.3006724031235 L 709.6039150705716 169.39256146241985 L 709.2746296923783 169.48296651640047 L 708.9433609422717 169.57187852463534 L 708.610141946851 169.6592885959977 L 708.2750060277377 169.7451879895533 L 707.9379866982447 169.82956811543434 L 707.599117660024 169.91242053569854 L 707.2584327996971 169.99373696517293 L 706.9159661854659 170.0735092722823 L 706.5717520637068 170.15172947986247 L 706.2258248555448 170.22838976595784 L 705.8782191534126 170.30348246460366 L 705.5289697175908 170.37700006659267 L 705.1781114727319 170.4489352202259 L 704.8256795043678 170.519280732048 L 704.471709055402 170.58802956756634 L 704.1162355225841 170.6551748519547 L 703.7592944529714 170.72070987074056 L 703.4009215403732 170.7846280704767 L 703.0411526217823 170.84692305939637 L 702.6800236737907 170.90758860805263 L 702.3175708089922 170.96661864994113 L 701.9538302723713 171.02400728210688 L 701.5888384376784 171.0797487657345 L 701.2226318037931 171.1338375267221 L 700.8552469910733 171.1862681562386 L 700.4867207376943 171.2370354112648 L 700.1170898959743 171.28613421511744 L 699.7463914286895 171.3335596579571 L 699.3746624053776 171.379306997279 L 699.0019399986313 171.4233716583873 L 698.6282614803805 171.46574923485267 L 698.2536642181658 171.50643548895275 L 697.8781856714011 171.54542635209603 L 697.5018633876283 171.58271792522868 L 697.124734998762 171.6183064792245 L 696.7468382173272 171.6521884552577 L 696.3682108326867 171.68436046515893 L 695.9888907072636 171.71481929175403 L 695.6089157727545 171.74356188918568 L 695.2283240263359 171.77058538321813 L 694.8471535268656 171.79588707152448 L 694.4654423910756 171.819464423957 L 694.0832287897617 171.84131508280007 L 693.7005509439653 171.86143686300602 L 693.3174471211521 171.8798277524136 L 692.9339556313853 171.89648591194918 L 692.550114823494 171.91140967581075 L 692.1659630812395 171.9245975516343 L 691.7815388194756 171.93604822064322 L 691.3968804803083 171.9457605377802 L 691.0120265292508 171.9537335318216 L 690.6270154513776 171.9599664054747 L 690.2418857474756 171.96445853545725 L 689.8566759301943 171.96720947256006 L 689.4714245201945 171.96821894169167 L 689.086170042296 171.96748684190604 L 688.7009510216257 171.96501324641252 L 688.3158059797644 171.9607984025686 L 687.9307734308956 171.95484273185517 L 687.5458918779532 171.9471468298343 L 687.1611998087718 171.93771146608984 L 686.7767356922377 171.92653758415025 L 686.3925379744422 171.91362630139443 L 686.008645074837 171.89897890893988 L 685.6250953823919 171.88259687151367 L 685.2419272517568 171.86448182730587 L 684.8591789994252 171.8446355878058 L 684.4768888999037 171.8230601376209 L 684.0950951818834 171.79975763427817 L 683.713836024418 171.77473040800854 L 683.3331495531056 171.7479809615138 L 682.9530738362761 171.71951196971628 L 682.5736468811845 171.68932627949147 L 682.1949066302099 171.65742690938322 L 681.8168909570619 171.62381704930195 L 681.4396376629928 171.58850006020566 L 681.0631844730178 171.55147947376383 L 680.6875690321419 171.51275899200425 L 680.3128289015964 171.47234248694286 L 679.939001555082 171.43023400019646 L 679.5661243750218 171.38643774257864 L 679.194234648823 171.34095809367864 L 678.8233695651485 171.2937996014235 L 678.4535662101976 171.24496698162312 L 678.0848615639974 171.19446511749877 L 677.7172924967053 171.1422990591948 L 677.3508957649221 171.08847402327356 L 676.9857080080153 171.0329953921938 L 676.6217657444563 170.9758687137724 L 676.2591053681682 170.91709970062956 L 675.8977631448865 170.85669422961763 L 675.5377752085324 170.79465834123343 L 675.1791775575995 170.73099823901404 L 674.8220060515539 170.66572028891665 L 674.4662964072488 170.59883101868186 L 674.1120841953522 170.53033711718098 L 673.7594048367899 170.46024543374708 L 673.4082935992042 170.38856297749007 L 673.0587855934259 170.31529691659586 L 672.7109157699646 170.24045457760946 L 672.3647189155126 170.16404344470243 L 672.0202296494668 170.08607115892437 L 671.677482420467 170.00654551743887 L 671.3365115029502 169.92547447274384 L 670.9973509937241 169.84286613187618 L 670.660034808557 169.7587287556011 L 670.3245966787864 169.67307075758615 L 669.9910701479456 169.58590070355973 L 669.6594885684099 169.49722731045463 L 669.3298850980607 169.40705944553625 L 669.0022926969706 169.31540612551595 L 668.6767441241067 169.22227651564933 L 668.3532719340549 169.1276799288198 L 668.0319084737646 169.03162582460718 L 667.7126858793141 168.93412380834187 L 667.3956360726969 168.83518363014423 L 667.0807907586294 168.73481518394962 L 666.7681814213805 168.63302850651908 L 666.4578393216237 168.52983377643545 L 666.1497954933101 168.42524131308582 L 665.8440807405659 168.3192615756293 L 665.5407256346117 168.21190516195136 L 665.2397605107053 168.1031828076039 L 664.9412154651081 167.9931053847317 L 664.6451203520761 167.88168390098542 L 664.3515047808737 167.76892949842048 L 664.0603981128135 167.65485345238324 L 663.7718294583195 167.5394671703832 L 663.4858276740168 167.42278219095243 L 663.2024213598455 167.30481018249165 L 662.9216388562008 167.18556294210336 L 662.6435082410993 167.06505239441225 L 662.3680573273704 166.94329059037267 L 662.0953136598761 166.8202897060635 L 661.8253045127559 166.69606204147075 L 661.5580568866994 166.57062001925732 L 661.2935975062466 166.44397618352087 L 661.031952817115 166.3161431985395 L 660.7731489835556 166.18713384750512 L 660.5172118857363 166.05696103124538 L 660.2641671171532 165.92563776693336 L 660.0140399820725 165.79317718678612 L 659.7668554929992 165.65959253675126 L 659.5226383681763 165.5248971751825 L 659.2814130291127 165.38910457150368 L 659.0432035981413 165.2522283048621 L 658.8080338960068 165.11428206277026 L 658.5759274394833 164.97527963973747 L 658.3469074390231 164.8352349358902 L 658.1209967964353 164.69416195558213 L 657.8982181025959 164.55207480599373 L 657.6785936351889 164.40898769572155 L 657.4621453564777 164.26491493335737 L 657.2488949111099 164.11987092605736 L 657.0388636239525 163.9738701781014 L 656.832072497959 163.8269272894426 L 656.6285422120696 163.67905695424741 L 656.4282931191435 163.5302739594261 L 656.231345243923 163.38059318315416 L 656.0377182810315 163.2300295933845 L 655.847431593004 163.0785982463506 L 655.6605042083506 162.926314285061 L 655.4769548196541 162.77319293778493 L 655.2968017817004 162.61924951652946 L 655.1200631096433 162.4644994155085 L 654.9467564772024 162.30895810960317 L 654.7768992148967 162.15264115281443 L 654.610508308311 161.99556417670772 L 654.4476003963971 161.8377428888497 L 654.2881917698105 161.6791930712377 L 654.1322983692812 161.51993057872136 L 653.9799357840191 161.35997133741714 L 653.8311192501558 161.19933134311594 L 653.6858636492207 161.0380266596833 L 653.5441835066529 160.87607341745317 L 653.4060929903485 160.71348781161475 L 653.2716059092442 160.55028610059318 L 653.1407357119358 160.38648460442357 L 653.0134954853343 160.22209970311903 L 652.889897953356 160.05714783503268 L 652.7699554756513 159.89164549521388 L 652.653680046368 159.72560923375872 L 652.541083292952 159.55905565415492 L 652.432176474985 159.39200141162172 L 652.3269704830578 159.22446321144412 L 652.2254758376822 159.05645780730254 L 652.1277026882381 158.88800199959735 L 652.0336608119587 158.71911263376902 L 651.9433596129536 158.54980659861332 L 651.8568081212672 158.3801008245927 L 651.7740149919769 158.21001228214314 L 651.6949885043261 158.03955797997713 L 651.6197365608981 157.8687549633829 L 651.5482666868244 157.69762031251972 L 651.4805860290329 157.52617114071006 L 651.416701355533 157.3544245927283 L 651.3566190547386 157.182397843086 L 651.3003451348301 157.01010809431486 L 651.2478852231523 156.83757257524616 L 651.1992445656526 156.664808539288 L 651.1544280263565 156.49183326270006 L 651.1134400868804 156.3186640428658 L 651.076284845984 156.14531819656293 L 651.0429660191606 155.97181305823162 L 651.0134869382651 155.7981659782411 L 650.9878505511809 155.62439432115465 L 650.9660594215255 155.4505154639932 L 650.9481157283936 155.2765467944976 L 650.9340212661397 155.10250570938976 L 650.9237774441981 154.92840961263317 L 650.9173852869425 154.75427591369245 L 650.9148454335834 154.5801220257924" stroke-miterlimit="10" stroke-width="4.485898137" stroke-dasharray=""/></g><g><g/><text fill="black" stroke="none" font-family="sans-serif" font-size="11pt" font-style="normal" font-weight="normal" text-decoration="normal" x="681.2875622947852" y="200.28215799900002" text-anchor="start" dominant-baseline="alphabetic" xml:space="preserve">db</text></g></g><g><path fill="none" stroke="black" paint-order="fill stroke markers" d=" M 13.19381805 282.52362384400004 L 760.80618195 282.52362384400004 M 13.19381805 291.31950254400004 L 760.80618195 291.31950254400004 M 13.19381805 300.11538124400005 L 760.80618195 300.11538124400005" stroke-miterlimit="10" stroke-width="2.1989696750000003" stroke-dasharray=""/><path fill="white" stroke="black" paint-order="fill stroke markers" d=" M 332.12245685990234 260.97372102900005 L 441.87754314009766 260.97372102900005 L 441.87754314009766 321.66528405900004 L 332.12245685990234 321.66528405900004 Z" stroke-miterlimit="10" stroke-width="2.1989696750000003" stroke-dasharray=""/><g><text fill="black" stroke="none" font-family="sans-serif" font-size="11pt" font-style="normal" font-weight="normal" text-decoration="normal" x="369.06514739990234" y="297.91641156900005" text-anchor="start" dominant-baseline="alphabetic" xml:space="preserve">Login</text></g><path fill="white" stroke="black" paint-order="fill stroke markers" d=" M 38.11505981025391 361.24673820900006 L 237.3618910855664 361.24673820900006 L 237.3618910855664 448.32593733900006 L 38.11505981025391 448.32593733900006 L 38.11505981025391 361.24673820900006" stroke-miterlimit="10" stroke-width="2.1989696750000003" stroke-dasharray=""/><g><text fill="black" stroke="none" font-family="sans-serif" font-size="11pt" font-style="normal" font-weight="normal" text-decoration="normal" x="75.05775035025391" y="398.18942874900006" text-anchor="start" dominant-baseline="alphabetic" xml:space="preserve">user clicks</text><text fill="black" stroke="none" font-family="sans-serif" font-size="11pt" font-style="normal" font-weight="normal" text-decoration="normal" x="75.05775035025391" y="424.57706484900007" text-anchor="start" dominant-baseline="alphabetic" xml:space="preserve">'Login with Google"</text></g><g><g><rect fill="white" stroke="none" x="187.0955358119141" y="487.907391489" width="78.39587457023437" height="34.30392693"/></g><text fill="black" stroke="none" font-family="sans-serif" font-size="11pt" font-style="normal" font-weight="normal" text-decoration="normal" x="191.05368122691408" y="511.656263979" text-anchor="start" dominant-baseline="alphabetic" xml:space="preserve">email + pw</text></g><g><path fill="none" stroke="black" paint-order="fill stroke markers" d=" M 137.73847544791016 522.211318419 L 293.1226503571524 522.211318419" stroke-miterlimit="10" stroke-width="2.1989696750000003" stroke-dasharray=""/><g transform="translate(314.8484707461524,522.211318419) translate(-314.8484707461524,-522.211318419)"><path fill="black" stroke="none" paint-order="stroke fill markers" d=" M 292.85877399615237 511.216470044 L 314.8484707461524 522.211318419 L 292.85877399615237 533.206166794 Z"/></g></g><path fill="white" stroke="black" paint-order="fill stroke markers" d=" M 244.09764421982425 561.792772569 L 385.5992972724805 561.792772569 L 385.5992972724805 622.484335599 L 244.09764421982425 622.484335599 L 244.09764421982425 561.792772569" stroke-miterlimit="10" stroke-width="2.1989696750000003" stroke-dasharray=""/><g><text fill="black" stroke="none" font-family="sans-serif" font-size="11pt" font-style="normal" font-weight="normal" text-decoration="normal" x="281.04033475982425" y="598.7354631090001" text-anchor="start" dominant-baseline="alphabetic" xml:space="preserve">verify user</text></g><path fill="white" stroke="black" paint-order="fill stroke markers" d=" M 185.82995165390628 662.065789749 L 443.86698983839847 662.065789749 L 443.86698983839847 722.757352779 L 185.82995165390628 722.757352779 L 185.82995165390628 662.065789749" stroke-miterlimit="10" stroke-width="2.1989696750000003" stroke-dasharray=""/><g><text fill="black" stroke="none" font-family="sans-serif" font-size="11pt" font-style="normal" font-weight="normal" text-decoration="normal" x="222.77264219390628" y="699.0084802890001" text-anchor="start" dominant-baseline="alphabetic" xml:space="preserve">Check if user in app-user-db</text></g><path fill="white" stroke="black" paint-order="fill stroke markers" d=" M 186.227221856543 762.338806929 L 443.46971963576175 762.338806929 L 443.46971963576175 823.030369959 L 186.227221856543 823.030369959 L 186.227221856543 762.338806929" stroke-miterlimit="10" stroke-width="2.1989696750000003" stroke-dasharray=""/><g><text fill="black" stroke="none" font-family="sans-serif" font-size="11pt" font-style="normal" font-weight="normal" text-decoration="normal" x="223.169912396543" y="799.2814974690001" text-anchor="start" dominant-baseline="alphabetic" xml:space="preserve">No: add user to app-user-db</text></g><path fill="white" stroke="black" paint-order="fill stroke markers" d=" M 234.1620591978516 862.611824109 L 395.53488229445315 862.611824109 L 395.53488229445315 923.303387139 L 234.1620591978516 923.303387139 L 234.1620591978516 862.611824109" stroke-miterlimit="10" stroke-width="2.1989696750000003" stroke-dasharray=""/><g><text fill="black" stroke="none" font-family="sans-serif" font-size="11pt" font-style="normal" font-weight="normal" text-decoration="normal" x="271.1047497378516" y="899.5545146490001" text-anchor="start" dominant-baseline="alphabetic" xml:space="preserve">Yes: continue</text></g><g><g><rect fill="white" stroke="none" x="168.96384483291018" y="962.8848412890001" width="114.65925652824218" height="34.30392693"/></g><text fill="black" stroke="none" font-family="sans-serif" font-size="11pt" font-style="normal" font-weight="normal" text-decoration="normal" x="172.92199024791017" y="986.6337137790001" text-anchor="start" dominant-baseline="alphabetic" xml:space="preserve"> userCredentials</text></g><g><path fill="none" stroke="black" paint-order="fill stroke markers" d=" M 314.8484707461524 997.188768219 L 159.46429583691017 997.188768219" stroke-miterlimit="10" stroke-width="2.1989696750000003" stroke-dasharray=""/><g transform="translate(137.73847544791016,997.188768219) translate(-137.73847544791016,-997.188768219)"><path fill="black" stroke="none" paint-order="stroke fill markers" d=" M 159.72817219791017 986.1939198440001 L 137.73847544791016 997.188768219 L 159.72817219791017 1008.183616594 Z"/></g></g><g><g><rect fill="white" stroke="none" x="282.3864038223633" y="1036.770222369" width="58.445984433515626" height="34.30392693"/></g><text fill="black" stroke="none" font-family="sans-serif" font-size="11pt" font-style="normal" font-weight="normal" text-decoration="normal" x="286.3445492373633" y="1060.519094859" text-anchor="start" dominant-baseline="alphabetic" xml:space="preserve">idToken</text></g><g><path fill="none" stroke="black" paint-order="fill stroke markers" d=" M 137.73847544791016 1071.074149299 L 463.7544962413321 1071.074149299" stroke-miterlimit="10" stroke-width="2.1989696750000003" stroke-dasharray=""/><g transform="translate(485.4803166303321,1071.074149299) translate(-485.4803166303321,-1071.074149299)"><path fill="black" stroke="none" paint-order="stroke fill markers" d=" M 463.4906198803321 1060.079300924 L 485.4803166303321 1071.074149299 L 463.4906198803321 1082.068997674 Z"/></g></g><path fill="white" stroke="black" paint-order="fill stroke markers" d=" M 431.01437169580083 1110.655603449 L 539.9462615648633 1110.655603449 L 539.9462615648633 1171.347166479 L 431.01437169580083 1171.347166479 L 431.01437169580083 1110.655603449" stroke-miterlimit="10" stroke-width="2.1989696750000003" stroke-dasharray=""/><g><text fill="black" stroke="none" font-family="sans-serif" font-size="11pt" font-style="normal" font-weight="normal" text-decoration="normal" x="467.95706223580083" y="1147.5982939889998" text-anchor="start" dominant-baseline="alphabetic" xml:space="preserve">/login</text></g><g><g><rect fill="white" stroke="none" x="370.9414014714844" y="1210.928620629" width="58.445984433515626" height="34.30392693"/></g><text fill="black" stroke="none" font-family="sans-serif" font-size="11pt" font-style="normal" font-weight="normal" text-decoration="normal" x="374.8995468864844" y="1234.677493119" text-anchor="start" dominant-baseline="alphabetic" xml:space="preserve">idToken</text></g><g><path fill="none" stroke="black" paint-order="fill stroke markers" d=" M 485.4803166303321 1245.232547559 L 336.57429113515235 1245.232547559" stroke-miterlimit="10" stroke-width="2.1989696750000003" stroke-dasharray=""/><g transform="translate(314.8484707461524,1245.232547559) translate(-314.8484707461524,-1245.232547559)"><path fill="black" stroke="none" paint-order="stroke fill markers" d=" M 336.8381674961524 1234.2376991840001 L 314.8484707461524 1245.232547559 L 336.8381674961524 1256.227395934 Z"/></g></g><path fill="white" stroke="black" paint-order="fill stroke markers" d=" M 240.4254869322266 1284.814001709 L 389.27145456007815 1284.814001709 L 389.27145456007815 1345.505564739 L 240.4254869322266 1345.505564739 L 240.4254869322266 1284.814001709" stroke-miterlimit="10" stroke-width="2.1989696750000003" stroke-dasharray=""/><g><text fill="black" stroke="none" font-family="sans-serif" font-size="11pt" font-style="normal" font-weight="normal" text-decoration="normal" x="277.3681774722266" y="1321.7566922489998" text-anchor="start" dominant-baseline="alphabetic" xml:space="preserve">verify token</text></g><g><g><rect fill="white" stroke="none" x="346.0738401311524" y="1385.087018889" width="108.18110711417968" height="34.30392693"/></g><text fill="black" stroke="none" font-family="sans-serif" font-size="11pt" font-style="normal" font-weight="normal" text-decoration="normal" x="350.0319855461524" y="1408.835891379" text-anchor="start" dominant-baseline="alphabetic" xml:space="preserve">decoded_token</text></g><g><path fill="none" stroke="black" paint-order="fill stroke markers" d=" M 314.8484707461524 1419.390945819 L 463.7544962413321 1419.390945819" stroke-miterlimit="10" stroke-width="2.1989696750000003" stroke-dasharray=""/><g transform="translate(485.4803166303321,1419.390945819) translate(-485.4803166303321,-1419.390945819)"><path fill="black" stroke="none" paint-order="stroke fill markers" d=" M 463.4906198803321 1408.3960974440001 L 485.4803166303321 1419.390945819 L 463.4906198803321 1430.385794194 Z"/></g></g><path fill="white" stroke="black" paint-order="fill stroke markers" d=" M 414.7223261025391 1458.972399969 L 556.238307158125 1458.972399969 L 556.238307158125 1519.663962999 L 414.7223261025391 1519.663962999 L 414.7223261025391 1458.972399969" stroke-miterlimit="10" stroke-width="2.1989696750000003" stroke-dasharray=""/><g><text fill="black" stroke="none" font-family="sans-serif" font-size="11pt" font-style="normal" font-weight="normal" text-decoration="normal" x="451.6650166425391" y="1495.9150905089998" text-anchor="start" dominant-baseline="alphabetic" xml:space="preserve">extract uid</text></g><g><g><rect fill="white" stroke="none" x="516.705686015332" y="1559.2454171489999" width="141.50968987785157" height="34.30392693"/></g><g><rect fill="white" stroke="none" x="516.705686015332" y="1585.6330532489999" width="92.26843316398437" height="34.30392693"/></g><text fill="black" stroke="none" font-family="sans-serif" font-size="11pt" font-style="normal" font-weight="normal" text-decoration="normal" x="520.663831430332" y="1582.9942896389998" text-anchor="start" dominant-baseline="alphabetic" xml:space="preserve"> SELECT * WHERE </text><text fill="black" stroke="none" font-family="sans-serif" font-size="11pt" font-style="normal" font-weight="normal" text-decoration="normal" x="520.663831430332" y="1609.3819257389998" text-anchor="start" dominant-baseline="alphabetic" xml:space="preserve">user_id = uid</text></g><g><path fill="none" stroke="black" paint-order="fill stroke markers" d=" M 485.4803166303321 1619.9369801789999 L 667.7149248891836 1619.9369801789999" stroke-miterlimit="10" stroke-width="2.1989696750000003" stroke-dasharray=""/><g transform="translate(689.4407452781836,1619.9369801789999) translate(-689.4407452781836,-1619.9369801789999)"><path fill="black" stroke="none" paint-order="stroke fill markers" d=" M 667.4510485281836 1608.942131804 L 689.4407452781836 1619.9369801789999 L 667.4510485281836 1630.9318285539998 Z"/></g></g><path fill="white" stroke="black" paint-order="fill stroke markers" d=" M 617.8667223407227 1659.5184343289998 L 761.0147682156446 1659.5184343289998 L 761.0147682156446 1720.2099973589998 L 617.8667223407227 1720.2099973589998 L 617.8667223407227 1659.5184343289998" stroke-miterlimit="10" stroke-width="2.1989696750000003" stroke-dasharray=""/><g><text fill="black" stroke="none" font-family="sans-serif" font-size="11pt" font-style="normal" font-weight="normal" text-decoration="normal" x="654.8094128807227" y="1696.4611248689996" text-anchor="start" dominant-baseline="alphabetic" xml:space="preserve">Verify user</text></g><path fill="none" stroke="black" paint-order="fill stroke markers" d=" M 13.19381805 1781.3413543239997 L 760.80618195 1781.3413543239997 M 13.19381805 1790.1372330239997 L 760.80618195 1790.1372330239997 M 13.19381805 1798.9331117239997 L 760.80618195 1798.9331117239997" stroke-miterlimit="10" stroke-width="2.1989696750000003" stroke-dasharray=""/><path fill="white" stroke="black" paint-order="fill stroke markers" d=" M 313.8082097285547 1759.7914515089997 L 460.1917902714453 1759.7914515089997 L 460.1917902714453 1820.4830145389997 L 313.8082097285547 1820.4830145389997 Z" stroke-miterlimit="10" stroke-width="2.1989696750000003" stroke-dasharray=""/><g><text fill="black" stroke="none" font-family="sans-serif" font-size="11pt" font-style="normal" font-weight="normal" text-decoration="normal" x="350.7509002685547" y="1796.7341420489995" text-anchor="start" dominant-baseline="alphabetic" xml:space="preserve"> New User </text></g><g><g><rect fill="white" stroke="none" x="545.6104864303711" y="1860.0644686889998" width="83.70008904777343" height="34.30392693"/></g><text fill="black" stroke="none" font-family="sans-serif" font-size="11pt" font-style="normal" font-weight="normal" text-decoration="normal" x="549.5686318453711" y="1883.8133411789997" text-anchor="start" dominant-baseline="alphabetic" xml:space="preserve">no matches</text></g><g><path fill="none" stroke="black" paint-order="fill stroke markers" d=" M 689.4407452781836 1894.3683956189998 L 507.20613701933206 1894.3683956189998" stroke-miterlimit="10" stroke-width="2.1989696750000003" stroke-dasharray=""/><g transform="translate(485.4803166303321,1894.3683956189998) translate(-485.4803166303321,-1894.3683956189998)"><path fill="black" stroke="none" paint-order="stroke fill markers" d=" M 507.4700133803321 1883.3735472439998 L 485.4803166303321 1894.3683956189998 L 507.4700133803321 1905.3632439939997 Z"/></g></g><path fill="white" stroke="black" paint-order="fill stroke markers" d=" M 420.01222783593755 1933.9498497689997 L 550.9484054247266 1933.9498497689997 L 550.9484054247266 1994.6414127989997 L 420.01222783593755 1994.6414127989997 L 420.01222783593755 1933.9498497689997" stroke-miterlimit="10" stroke-width="2.1989696750000003" stroke-dasharray=""/><g><text fill="black" stroke="none" font-family="sans-serif" font-size="11pt" font-style="normal" font-weight="normal" text-decoration="normal" x="456.95491837593755" y="1970.8925403089995" text-anchor="start" dominant-baseline="alphabetic" xml:space="preserve">add user</text></g><g><g><rect fill="white" stroke="none" x="523.3413366500977" y="2034.2228669489998" width="128.23838860832032" height="34.30392693"/></g><text fill="black" stroke="none" font-family="sans-serif" font-size="11pt" font-style="normal" font-weight="normal" text-decoration="normal" x="527.2994820650977" y="2057.9717394389995" text-anchor="start" dominant-baseline="alphabetic" xml:space="preserve">INSERT: user info </text></g><g><path fill="none" stroke="black" paint-order="fill stroke markers" d=" M 485.4803166303321 2068.526793879 L 667.7149248891836 2068.526793879" stroke-miterlimit="10" stroke-width="2.1989696750000003" stroke-dasharray=""/><g transform="translate(689.4407452781836,2068.526793879) translate(-689.4407452781836,-2068.526793879)"><path fill="black" stroke="none" paint-order="stroke fill markers" d=" M 667.4510485281836 2057.531945504 L 689.4407452781836 2068.526793879 L 667.4510485281836 2079.5216422539997 Z"/></g></g><path fill="none" stroke="black" paint-order="fill stroke markers" d=" M 13.19381805 2129.658150844 L 760.80618195 2129.658150844 M 13.19381805 2138.4540295439997 L 760.80618195 2138.4540295439997 M 13.19381805 2147.2499082439995 L 760.80618195 2147.2499082439995" stroke-miterlimit="10" stroke-width="2.1989696750000003" stroke-dasharray=""/><path fill="white" stroke="black" paint-order="fill stroke markers" d=" M 337.83827717240234 2108.1082480289997 L 436.1617228275977 2108.1082480289997 L 436.1617228275977 2168.7998110589997 L 337.83827717240234 2168.7998110589997 Z" stroke-miterlimit="10" stroke-width="2.1989696750000003" stroke-dasharray=""/><g><text fill="black" stroke="none" font-family="sans-serif" font-size="11pt" font-style="normal" font-weight="normal" text-decoration="normal" x="374.78096771240234" y="2145.0509385689998" text-anchor="start" dominant-baseline="alphabetic" xml:space="preserve"> All </text></g><g><g><rect fill="white" stroke="none" x="543.5775655929688" y="2208.3812652089996" width="87.76593072257812" height="34.30392693"/></g><text fill="black" stroke="none" font-family="sans-serif" font-size="11pt" font-style="normal" font-weight="normal" text-decoration="normal" x="547.5357110079688" y="2232.1301376989995" text-anchor="start" dominant-baseline="alphabetic" xml:space="preserve">confirmation</text></g><g><path fill="none" stroke="black" paint-order="fill stroke markers" d=" M 689.4407452781836 2242.685192139 L 507.20613701933206 2242.685192139" stroke-miterlimit="10" stroke-width="2.1989696750000003" stroke-dasharray=""/><g transform="translate(485.4803166303321,2242.685192139) translate(-485.4803166303321,-2242.685192139)"><path fill="black" stroke="none" paint-order="stroke fill markers" d=" M 507.4700133803321 2231.690343764 L 485.4803166303321 2242.685192139 L 507.4700133803321 2253.6800405139998 Z"/></g></g><path fill="white" stroke="black" paint-order="fill stroke markers" d=" M 341.78034001855474 2282.266646289 L 629.1802932421094 2282.266646289 L 629.1802932421094 2369.345845419 L 341.78034001855474 2369.345845419 L 341.78034001855474 2282.266646289" stroke-miterlimit="10" stroke-width="2.1989696750000003" stroke-dasharray=""/><g><text fill="black" stroke="none" font-family="sans-serif" font-size="11pt" font-style="normal" font-weight="normal" text-decoration="normal" x="378.72303055855474" y="2319.2093368289998" text-anchor="start" dominant-baseline="alphabetic" xml:space="preserve">create personal encrypted token </text><text fill="black" stroke="none" font-family="sans-serif" font-size="11pt" font-style="normal" font-weight="normal" text-decoration="normal" x="378.72303055855474" y="2345.5969729289995" text-anchor="start" dominant-baseline="alphabetic" xml:space="preserve">secretString/userId/timeStamp</text></g><g><g><rect fill="white" stroke="none" x="255.49307801669926" y="2408.927299569" width="112.23263604484374" height="34.30392693"/></g><g><rect fill="white" stroke="none" x="255.49307801669926" y="2435.3149356689996" width="7.91629083" height="34.30392693"/></g><text fill="black" stroke="none" font-family="sans-serif" font-size="11pt" font-style="normal" font-weight="normal" text-decoration="normal" x="259.45122343169925" y="2432.676172059" text-anchor="start" dominant-baseline="alphabetic" xml:space="preserve">encrypted token</text><text fill="black" stroke="none" font-family="sans-serif" font-size="11pt" font-style="normal" font-weight="normal" text-decoration="normal" x="259.45122343169925" y="2459.0638081589996" text-anchor="start" dominant-baseline="alphabetic" xml:space="preserve"></text></g><g><path fill="none" stroke="black" paint-order="fill stroke markers" d=" M 485.4803166303321 2469.618862599 L 159.46429583691017 2469.618862599" stroke-miterlimit="10" stroke-width="2.1989696750000003" stroke-dasharray=""/><g transform="translate(137.73847544791016,2469.618862599) translate(-137.73847544791016,-2469.618862599)"><path fill="black" stroke="none" paint-order="stroke fill markers" d=" M 159.72817219791017 2458.624014224 L 137.73847544791016 2469.618862599 L 159.72817219791017 2480.613710974 Z"/></g></g><path fill="white" stroke="black" paint-order="fill stroke markers" d=" M 13.19381805 2509.2003167489997 L 262.2831328458203 2509.2003167489997 L 262.2831328458203 2569.8918797789997 L 13.19381805 2569.8918797789997 L 13.19381805 2509.2003167489997" stroke-miterlimit="10" stroke-width="2.1989696750000003" stroke-dasharray=""/><g><text fill="black" stroke="none" font-family="sans-serif" font-size="11pt" font-style="normal" font-weight="normal" text-decoration="normal" x="50.136508590000005" y="2546.143007289" text-anchor="start" dominant-baseline="alphabetic" xml:space="preserve">redirect to user home page</text></g><path fill="none" stroke="black" paint-order="fill stroke markers" d=" M 13.19381805 2631.023236744 L 760.80618195 2631.023236744 M 13.19381805 2639.8191154439996 L 760.80618195 2639.8191154439996 M 13.19381805 2648.6149941439994 L 760.80618195 2648.6149941439994" stroke-miterlimit="10" stroke-width="2.1989696750000003" stroke-dasharray=""/><path fill="white" stroke="black" paint-order="fill stroke markers" d=" M 296.6822407954492 2609.4733339289996 L 477.3177592045508 2609.4733339289996 L 477.3177592045508 2670.1648969589996 L 296.6822407954492 2670.1648969589996 Z" stroke-miterlimit="10" stroke-width="2.1989696750000003" stroke-dasharray=""/><g><text fill="black" stroke="none" font-family="sans-serif" font-size="11pt" font-style="normal" font-weight="normal" text-decoration="normal" x="333.6249313354492" y="2646.4160244689997" text-anchor="start" dominant-baseline="alphabetic" xml:space="preserve">User is Loged In</text></g><path fill="white" stroke="black" paint-order="fill stroke markers" d=" M 62.49587340888672 2709.7463511089995 L 212.9810774869336 2709.7463511089995 L 212.9810774869336 2770.4379141389995 L 62.49587340888672 2770.4379141389995 L 62.49587340888672 2709.7463511089995" stroke-miterlimit="10" stroke-width="2.1989696750000003" stroke-dasharray=""/><g><text fill="black" stroke="none" font-family="sans-serif" font-size="11pt" font-style="normal" font-weight="normal" text-decoration="normal" x="99.43856394888672" y="2746.6890416489996" text-anchor="start" dominant-baseline="alphabetic" xml:space="preserve">API request</text></g><g><g><rect fill="white" stroke="none" x="221.46301820224613" y="2810.0193682889994" width="180.29275567375" height="34.30392693"/></g><text fill="black" stroke="none" font-family="sans-serif" font-size="11pt" font-style="normal" font-weight="normal" text-decoration="normal" x="225.42116361724612" y="2833.7682407789994" text-anchor="start" dominant-baseline="alphabetic" xml:space="preserve">hashToken + request_info </text></g><g><path fill="none" stroke="black" paint-order="fill stroke markers" d=" M 137.73847544791016 2844.3232952189996 L 463.7544962413321 2844.3232952189996" stroke-miterlimit="10" stroke-width="2.1989696750000003" stroke-dasharray=""/><g transform="translate(485.4803166303321,2844.3232952189996) translate(-485.4803166303321,-2844.3232952189996)"><path fill="black" stroke="none" paint-order="stroke fill markers" d=" M 463.4906198803321 2833.3284468439997 L 485.4803166303321 2844.3232952189996 L 463.4906198803321 2855.3181435939996 Z"/></g></g><path fill="white" stroke="black" paint-order="fill stroke markers" d=" M 347.10604650048833 2883.9047493689995 L 623.8545867601758 2883.9047493689995 L 623.8545867601758 2944.5963123989995 L 347.10604650048833 2944.5963123989995 L 347.10604650048833 2883.9047493689995" stroke-miterlimit="10" stroke-width="2.1989696750000003" stroke-dasharray=""/><g><text fill="black" stroke="none" font-family="sans-serif" font-size="11pt" font-style="normal" font-weight="normal" text-decoration="normal" x="384.04873704048833" y="2920.8474399089996" text-anchor="start" dominant-baseline="alphabetic" xml:space="preserve">verify request is from valid user</text></g><g><g><rect fill="white" stroke="none" x="259.15807130283207" y="2984.1777665489994" width="104.90264947257812" height="34.30392693"/></g><text fill="black" stroke="none" font-family="sans-serif" font-size="11pt" font-style="normal" font-weight="normal" text-decoration="normal" x="263.11621671783206" y="3007.9266390389994" text-anchor="start" dominant-baseline="alphabetic" xml:space="preserve">requested info </text></g><g><path fill="none" stroke="black" paint-order="fill stroke markers" d=" M 485.4803166303321 3018.4816934789997 L 159.46429583691017 3018.4816934789997" stroke-miterlimit="10" stroke-width="2.1989696750000003" stroke-dasharray=""/><g transform="translate(137.73847544791016,3018.4816934789997) translate(-137.73847544791016,-3018.4816934789997)"><path fill="black" stroke="none" paint-order="stroke fill markers" d=" M 159.72817219791017 3007.4868451039997 L 137.73847544791016 3018.4816934789997 L 159.72817219791017 3029.4765418539996 Z"/></g></g></g><g/><g/><g/><g/></g></svg>